{"title":"Despicable Me 2 2013 TS x264 AC3-BadMeetsEvil","uid":8870016,"size":751455491,"categoryP":"video","categoryS":"movies","magnet":"?xt=urn:btih:8c0e716611c6decc49b71d7553b1d2524a8c8b73&amp;dn=Despicable+Me+2+2013+TS+x264+AC3-BadMeetsEvil&amp;tr=udp%3A%2F%2Ftracker.openbittorrent.com%3A80&amp;tr=udp%3A%2F%2Fopen.demonii.com%3A1337&amp;tr=udp%3A%2F%2Ftracker.coppersurfer.tk%3A6969&amp;tr=udp%3A%2F%2Fexodus.desync.com%3A6969","seeders":5,"leechers":0,"uploader":"TeX","files":3,"time":1377993945,"description":" . . \n8 888888888o ,8. ,8. 8 8888888888 \n8 8888 `88. ,888. ,888. 8 8888 \n8 8888 `88 .`8888. .`8888. 8 8888 \n8 8888 ,88 ,8.`8888. ,8.`8888. 8 8888 \n8 8888. ,88' ,8'8.`8888,8^8.`8888. 8 888888888888 \n8 8888888888 ,8' `8.`8888' `8.`8888. 8 8888 \n8 8888 `88. ,8' `8.`88' `8.`8888. 8 8888 \n8 8888 88 ,8' `8.`' `8.`8888. 8 8888 \n8 8888 ,88',8' `8 `8.`8888. 8 8888 \n8 888888888P ,8' ` `8.`8888. 8 888888888888 \n\nPRouDLY PReSeNTS\n\n[IMG]http://lookpic.com/O/i2/638/d58vj0pg.jpeg[/IMG]\n\nDespicable Me 2 2013 TS x264 AC3-BadMeetsEvil\n\niMDB http://www.imdb.com/title/tt1690953\n\nSource V : Despicable Me 2 TS MD German-Troublemaker 1080 SORS - MANY THANKX\n A : Despicable Me 2 2013 TS + END SCENE XViD - JUSTiCE - MANY THANKX\n\n^^^ NOTES: Very nice 1080p source used here, all i did was crop the black off the bottom, resized, tweaked contrast, saturation, levels and sharpen.\n\nMedia Info\nDespicable Me 2 2013 TS x264 AC3-BadMeetsEvil.mp4\nFormat : MPEG-4\nFormat profile : Base Media\nCodec ID : isom\nFile size : 717 MiB\nDuration : 1h 33mn\nOverall bit rate mode : Variable\nOverall bit rate : 1 068 Kbps\nEncoded date : UTC 2013-07-19 03:18:43\nTagged date : UTC 2013-07-19 03:18:43\n\nVideo\nID : 1\nFormat : AVC\nFormat/Info : Advanced Video Codec\nFormat profile : &lt;a class=&quot;__cf_email__&quot; href=&quot;/cdn-cgi/l/email-protection&quot; data-cfemail=&quot;0840616f6048443c2639&quot;&gt;[email&amp;#160;protected]&lt;/a&gt;&lt;script cf-hash='f9e31' type=&quot;text/javascript&quot;&gt;\n/* &lt;![CDATA[ */!function(){try{var t=&quot;currentScript&quot;in document?document.currentScript:function(){for(var t=document.getElementsByTagName(&quot;script&quot;),e=t.length;e--;)if(t[e].getAttribute(&quot;cf-hash&quot;))return t[e]}();if(t&amp;&amp;t.previousSibling){var e,r,n,i,c=t.previousSibling,a=c.getAttribute(&quot;data-cfemail&quot;);if(a){for(e=&quot;&quot;,r=parseInt(a.substr(0,2),16),n=2;a.length-n;n+=2)i=parseInt(a.substr(n,2),16)^r,e+=String.fromCharCode(i);e=document.createTextNode(e),c.parentNode.replaceChild(e,c)}}}catch(u){}}();/* ]]&gt; */&lt;/script&gt;\nFormat settings, CABAC : Yes\nFormat settings, ReFrames : 3 frames\nCodec ID : avc1\nCodec ID/Info : Advanced Video Coding\nDuration : 1h 33mn\nBit rate mode : Variable\nBit rate : 938 Kbps\nMaximum bit rate : 40.0 Mbps\nWidth : 720 pixels\nHeight : 384 pixels\nDisplay aspect ratio : 1.85:1\nFrame rate mode : Constant\nFrame rate : 20.000 fps\nColor space : YUV\nChroma subsampling : 4:2:0\nBit depth : 8 bits\nScan type : Progressive\nBits/(Pixel*Frame) : 0.170\nStream size : 629 MiB (88%)\nTitle : Despicable Me 2 2013 TS x264 AC3-BadMeetsEvil\nWriting library : x264 core 133 r2334 a3ac64b\n\nAudio\nID : 2\nFormat : AC-3\nFormat/Info : Audio Coding 3\nMode extension : CM (complete main)\nFormat settings, Endianness : Big\nCodec ID : ac-3\nDuration : 1h 33mn\nBit rate mode : Constant\nBit rate : 128 Kbps\nChannel(s) : 2 channels\nChannel positions : Front: L R\nSampling rate : 48.0 KHz\nBit depth : 16 bits\nCompression mode : Lossy\nStream size : 85.9 MiB (12%)\nTitle : 2.0\nLanguage : English\nEncoded date : UTC 2013-07-19 03:19:00\nTagged date : UTC 2013-07-19 03:19:26\n\nScreens\n[img]http://ultraimg.com/images/tdP8a.png[/img]\n[img]http://ultraimg.com/images/XDKOq.png[/img]\n[img]http://ultraimg.com/images/8nJLd.png[/img]\n[img]http://ultraimg.com/images/hn9Y7.png[/img]\n[img]http://ultraimg.com/images/8DG3W.png[/img]\nGreetz\n\nTHC, PA, AXED, SN1P3R, LEGi0N, Rx, VAiN, INFERNO, HELLRAZ0R, FooKaS, FLAWL3SS, FraMeSToR, KRaLiMaRKo, HDMaNiAcS, BluEvo, a few more that know they are ;)\n\nAll the HaTeRs you know who you are as well :P","torrent":{"xt":"urn:btih:8c0e716611c6decc49b71d7553b1d2524a8c8b73","amp;dn":"Despicable+Me+2+2013+TS+x264+AC3-BadMeetsEvil","amp;tr":["udp%3A%2F%2Ftracker.openbittorrent.com%3A80","udp%3A%2F%2Fopen.demonii.com%3A1337","udp%3A%2F%2Ftracker.coppersurfer.tk%3A6969","udp%3A%2F%2Fexodus.desync.com%3A6969"],"infoHash":"8c0e716611c6decc49b71d7553b1d2524a8c8b73","infoHashBuffer":{"type":"Buffer","data":[140,14,113,102,17,198,222,204,73,183,29,117,83,177,210,82,74,140,139,115]},"announce":[],"urlList":[]}}